/* XPM */
static const char * play_xpm[] = {
"48 48 448 2",
"  	c None",
". 	c #000000",
"+ 	c #000001",
"@ 	c #000D13",
"# 	c #012332",
"$ 	c #01354B",
"% 	c #02425D",
"& 	c #024C69",
"* 	c #024D6A",
"= 	c #02435E",
"- 	c #01364C",
"; 	c #000305",
"> 	c #022436",
", 	c #044B6F",
"' 	c #056EA0",
") 	c #0581B9",
"! 	c #0586BE",
"~ 	c #058AC2",
"{ 	c #058EC7",
"] 	c #0493CB",
"^ 	c #0495CD",
"/ 	c #0490C9",
"( 	c #058BC3",
"_ 	c #0587BF",
": 	c #022537",
"< 	c #000406",
"[ 	c #000B11",
"} 	c #043B5B",
"| 	c #06699E",
"1 	c #0776AF",
"2 	c #077AB3",
"3 	c #067EB7",
"4 	c #0682BA",
"5 	c #067DB6",
"6 	c #0779B2",
"7 	c #0774AE",
"8 	c #07679D",
"9 	c #000B12",
"0 	c #000509",
"a 	c #043858",
"b 	c #0767A0",
"c 	c #086EA9",
"d 	c #0772AC",
"e 	c #087BB4",
"f 	c #0D83BA",
"g 	c #1289BE",
"h 	c #178CC0",
"i 	c #1A8DC1",
"j 	c #1B8DC0",
"k 	c #1C8CBF",
"l 	c #1C8BBE",
"m 	c #1B8ABE",
"n 	c #1889BD",
"o 	c #1587BC",
"p 	c #1284BA",
"q 	c #0D80B7",
"r 	c #087AB2",
"s 	c #0770AA",
"t 	c #086CA6",
"u 	c #08659E",
"v 	c #043758",
"w 	c #000609",
"x 	c #021C2D",
"y 	c #07598D",
"z 	c #0867A2",
"A 	c #086BA5",
"B 	c #0970AA",
"C 	c #107EB5",
"D 	c #198ABE",
"E 	c #1E91C2",
"F 	c #1F90C2",
"G 	c #1F8FC1",
"H 	c #1E8EC0",
"I 	c #1E8DBF",
"J 	c #1E8CBF",
"K 	c #1E8BBE",
"L 	c #1D8ABD",
"M 	c #1D89BC",
"N 	c #1D88BB",
"O 	c #1C86BA",
"P 	c #1C85B9",
"Q 	c #1C84B8",
"R 	c #1B83B7",
"S 	c #167EB4",
"T 	c #0F76AE",
"U 	c #096DA7",
"V 	c #09639F",
"W 	c #08568B",
"X 	c #021B2D",
"Y 	c #000101",
"Z 	c #043151",
"` 	c #08609B",
" .	c #09649F",
"..	c #096AA4",
"+.	c #137FB5",
"@.	c #1D90C3",
"#.	c #2092C4",
"$.	c #1F91C3",
"%.	c #1C83B7",
"&.	c #1B82B6",
"*.	c #1B81B5",
"=.	c #1B80B4",
"-.	c #197DB2",
";.	c #1173AA",
">.	c #0A65A0",
",.	c #095F9B",
"'.	c #095B96",
").	c #052F50",
"!.	c #000102",
"~.	c #000203",
"{.	c #063D65",
"].	c #095E99",
"^.	c #09619C",
"/.	c #1175AD",
"(.	c #2093C6",
"_.	c #1B7FB3",
":.	c #1A7DB2",
"<.	c #1A7CB1",
"[.	c #1879AF",
"}.	c #0F6AA3",
"|.	c #095C98",
"1.	c #0A5894",
"2.	c #063963",
"3.	c #000204",
"4.	c #063D66",
"5.	c #095B97",
"6.	c #0A629D",
"7.	c #1985BA",
"8.	c #2094C7",
"9.	c #1F92C4",
"0.	c #1A7BB1",
"a.	c #197AB0",
"b.	c #1979AF",
"c.	c #1470A7",
"d.	c #0B5B96",
"e.	c #0A5591",
"f.	c #073A65",
"g.	c #06345A",
"h.	c #0D649F",
"i.	c #1D8EC1",
"j.	c #2095C7",
"k.	c #2094C6",
"l.	c #2097C8",
"m.	c #2199CA",
"n.	c #219ACB",
"o.	c #2198C9",
"p.	c #1978AE",
"q.	c #1977AD",
"r.	c #1672A9",
"s.	c #0C5B96",
"t.	c #0A518E",
"u.	c #063157",
"v.	c #04223C",
"w.	c #095591",
"x.	c #0E659F",
"y.	c #1F91C4",
"z.	c #2097C9",
"A.	c #229CCD",
"B.	c #229DCE",
"C.	c #1F92C5",
"D.	c #1876AC",
"E.	c #1875AB",
"F.	c #1772A9",
"G.	c #0D5994",
"H.	c #0A4E8B",
"I.	c #04203A",
"J.	c #010C16",
"K.	c #09508A",
"L.	c #0D609B",
"M.	c #2198CA",
"N.	c #219CCD",
"O.	c #1874AA",
"P.	c #1773A9",
"Q.	c #1670A7",
"R.	c #0D5591",
"S.	c #0A4883",
"T.	c #010B15",
"U.	c #073C68",
"V.	c #0B5894",
"W.	c #1D8DC1",
"X.	c #229ACB",
"Y.	c #1978AD",
"Z.	c #1772A8",
"`.	c #1770A7",
" +	c #156CA3",
".+	c #0C4F8B",
"++	c #083663",
"@+	c #031628",
"#+	c #0B518E",
"$+	c #1981B6",
"%+	c #2096C8",
"&+	c #166FA6",
"*+	c #166EA6",
"=+	c #13649D",
"-+	c #0B4986",
";+	c #031426",
">+	c #083C6B",
",+	c #136AA3",
"'+	c #2196C8",
")+	c #1877AD",
"!+	c #176FA6",
"~+	c #166DA5",
"{+	c #166CA4",
"]+	c #0F5792",
"^+	c #083565",
"/+	c #010E19",
"(+	c #0C528E",
"_+	c #1E8EC2",
":+	c #1F93C6",
"<+	c #59B0D5",
"[+	c #A3D3E8",
"}+	c #8FCAE3",
"|+	c #3BA1CE",
"1+	c #1E8FC3",
"2+	c #156BA3",
"3+	c #1468A0",
"4+	c #0C4885",
"5+	c #020C17",
"6+	c #05294A",
"7+	c #1570A8",
"8+	c #4CA8D0",
"9+	c #FAFDFD",
"0+	c #FFFFFF",
"a+	c #F7FBFD",
"b+	c #94CBE3",
"c+	c #2B98C7",
"d+	c #166EA5",
"e+	c #156AA2",
"f+	c #1569A1",
"g+	c #105792",
"h+	c #062445",
"i+	c #094274",
"j+	c #1D8DC0",
"k+	c #97CCE3",
"l+	c #E6F3F8",
"m+	c #71B9D9",
"n+	c #2191C3",
"o+	c #197CB1",
"p+	c #1568A0",
"q+	c #0A396C",
"r+	c #00060C",
"s+	c #11629B",
"t+	c #1F8EC0",
"u+	c #1F8EC1",
"v+	c #ACD5E8",
"w+	c #CDE6F1",
"x+	c #51A8CF",
"y+	c #156DA4",
"z+	c #14679F",
"A+	c #14669E",
"B+	c #0E4E89",
"C+	c #00050A",
"D+	c #021323",
"E+	c #187AAF",
"F+	c #AED5E8",
"G+	c #FCFDFE",
"H+	c #ADD5E7",
"I+	c #3598C6",
"J+	c #14649D",
"K+	c #115994",
"L+	c #02101F",
"M+	c #041F37",
"N+	c #1D8BBE",
"O+	c #F4F9FC",
"P+	c #89C2DD",
"Q+	c #268FBF",
"R+	c #1467A0",
"S+	c #13639C",
"T+	c #126099",
"U+	c #041A31",
"V+	c #072E4A",
"W+	c #1E90C2",
"X+	c #ADD4E6",
"Y+	c #E0EEF5",
"Z+	c #66AFD2",
"`+	c #1E89BC",
" @	c #1C88BB",
".@	c #13629B",
"+@	c #13619A",
"@@	c #06233F",
"#@	c #0B3C58",
"$@	c #1C86B9",
"%@	c #ADD3E6",
"&@	c #FEFEFE",
"*@	c #C4E0ED",
"=@	c #469CC6",
"-@	c #136099",
";@	c #082946",
">@	c #0D435E",
",@	c #ADD2E5",
"'@	c #FBFCFD",
")@	c #98C7DF",
"!@	c #1E85B8",
"~@	c #197AAF",
"{@	c #135F98",
"]@	c #092F4D",
"^@	c #0F4761",
"/@	c #1B82B7",
"(@	c #1B81B6",
"_@	c #ACD1E4",
":@	c #8CBFDA",
"<@	c #135E98",
"[@	c #09304E",
"}@	c #0E435C",
"|@	c #1B7FB4",
"1@	c #D1E5F0",
"2@	c #135D97",
"3@	c #092F4E",
"4@	c #0D4058",
"5@	c #1A7EB2",
"6@	c #ACD0E3",
"7@	c #A2C6DC",
"8@	c #125C96",
"9@	c #082B47",
"0@	c #0B3448",
"a@	c #ACCFE2",
"b@	c #C2D7E5",
"c@	c #2477AB",
"d@	c #125B95",
"e@	c #07233A",
"f@	c #07222E",
"g@	c #197BB0",
"h@	c #ABCEE1",
"i@	c #E6EEF4",
"j@	c #6A9ABE",
"k@	c #1668A0",
"l@	c #1771A8",
"m@	c #125A94",
"n@	c #041726",
"o@	c #020A0E",
"p@	c #1C85B7",
"q@	c #ABCDE1",
"r@	c #F6F8FA",
"s@	c #8EB1CC",
"t@	c #1F679E",
"u@	c #166DA4",
"v@	c #115791",
"w@	c #01070C",
"x@	c #176E98",
"y@	c #ABCCE0",
"z@	c #B1C8DB",
"A@	c #326FA2",
"B@	c #14629B",
"C@	c #125993",
"D@	c #0E4979",
"E@	c #0E4662",
"F@	c #1A80B5",
"G@	c #1771A7",
"H@	c #ABCBDF",
"I@	c #D3DFEA",
"J@	c #4E7FAB",
"K@	c #135E97",
"L@	c #125B96",
"M@	c #115792",
"N@	c #092E4D",
"O@	c #051821",
"P@	c #AACADE",
"Q@	c #EBF0F5",
"R@	c #7196B9",
"S@	c #145791",
"T@	c #105690",
"U@	c #03101B",
"V@	c #15638B",
"W@	c #156CA4",
"X@	c #9ABDD5",
"Y@	c #F8FAFB",
"Z@	c #96AFCA",
"`@	c #1F5991",
" #	c #125F98",
".#	c #115691",
"+#	c #0C416E",
"@#	c #072534",
"##	c #558AB3",
"$#	c #BAC9DB",
"%#	c #366598",
"&#	c #105691",
"*#	c #115590",
"=#	c #041829",
"-#	c #145E85",
";#	c #14669F",
">#	c #125D97",
",#	c #7694B7",
"'#	c #CBD7E4",
")#	c #B6C6D9",
"!#	c #5278A4",
"~#	c #0F4E8A",
"{#	c #0C3E6A",
"]#	c #04141C",
"^#	c #1978AB",
"/#	c #1775AB",
"(#	c #14659E",
"_#	c #0D4A87",
":#	c #0E4D89",
"<#	c #115B95",
"[#	c #10518A",
"}#	c #020D16",
"|#	c #0A344A",
"1#	c #12619A",
"2#	c #10548F",
"3#	c #07233C",
"4#	c #0F4B6D",
"5#	c #125E98",
"6#	c #11548F",
"7#	c #0A3358",
"8#	c #000304",
"9#	c #11557B",
"0#	c #13609A",
"a#	c #0B3A63",
"b#	c #104F74",
"c#	c #125994",
"d#	c #0B3860",
"e#	c #000103",
"f#	c #0C3E5B",
"g#	c #115A94",
"h#	c #115892",
"i#	c #115993",
"j#	c #10538E",
"k#	c #082C4B",
"l#	c #062132",
"m#	c #146495",
"n#	c #1469A1",
"o#	c #0F4A7F",
"p#	c #01070A",
"q#	c #0C3C5B",
"r#	c #15699F",
"s#	c #10528B",
"t#	c #092E4E",
"u#	c #000408",
"v#	c #020C12",
"w#	c #0B3A59",
"x#	c #136195",
"y#	c #0F4F85",
"z#	c #01080E",
"A#	c #062133",
"B#	c #0C4063",
"C#	c #11588A",
"D#	c #13639B",
"E#	c #0F4D80",
"F#	c #0B365B",
"G#	c #051B2D",
"H#	c #020A10",
"I#	c #051A29",
"J#	c #07253C",
"K#	c #082C47",
"L#	c #09314E",
"M#	c #082B46",
"N#	c #041727",
"O#	c #01090F",
"                                      . . . . . . . . . .                                       ",
"                              . . . + @ # $ % & * = - # @ + . . .                               ",
"                          . . ; > , ' ) ! ~ { ] ^ / ( _ ) ' , : < . .                           ",
"                      . . [ } | 1 2 3 4 ! ~ { ] ^ / ( _ 4 5 6 7 8 } 9 . .                       ",
"                    . 0 a b c d 1 e f g h i j k l m n o p q r 7 s t u v w .                     ",
"                . . x y z A B C D E F G H I J K L M N O P Q R S T U z V W X . .                 ",
"              . Y Z `  ...+.@.#.$.F G H I J K L M N O P Q %.&.*.=.-.;.>.,.'.).!..               ",
"            . ~.{.].^./.@.(.#.$.F G H I J K L M N O P Q %.&.*.=._.:.<.[.}.|.1.2.3..             ",
"          . ~.4.5.6.7.8.(.9.$.F G H I J K L M N O P Q %.&.*.=._.:.<.0.a.b.c.d.e.f.~..           ",
"        . . g.1.h.i.j.(.9.$.F G H I I F k.l.m.n.n.o.j.F M *._.:.<.0.a.b.p.q.r.s.t.u.. .         ",
"        . v.w.x.y.j.(.#.$.F G H $.z.A.B.B.B.B.B.B.B.B.B.B.A.C.P <.a.b.p.q.D.E.F.G.H.I..         ",
"      . J.K.L.y.j.(.#.$.F G $.M.N.A.A.A.A.A.A.A.A.A.A.A.A.A.A.N.k.&.p.q.D.E.O.P.Q.R.S.T..       ",
"      . U.V.W.j.(.9.$.F F j.n.X.X.X.X.X.X.X.X.X.X.X.X.X.X.X.X.X.X.n.J Y.E.O.P.Z.`. +.+++.       ",
"    . @+#+$+j.(.9.$.F F %+M.M.M.M.M.M.M.M.M.M.M.M.M.M.M.M.M.M.M.M.M.M.9.p.P.Z.`.&+*+=+-+;+.     ",
"    . >+,+8.(.#.$.F F j.'+'+'+'+'+'+'+'+'+'+'+'+'+'+'+'+'+'+'+'+'+'+'+'+C.)+`.!+*+~+{+]+^+.     ",
"  . /+(+_+(.#.$.F F :+8.8.8.8.8.8.<+[+}+|+8.8.8.8.8.8.8.8.8.8.8.8.8.8.8.8.1+P.*+~+{+2+3+4+5+.   ",
"  . 6+7+(.9.$.F G $.#.#.#.#.#.#.8+9+0+0+a+b+c+#.#.#.#.#.#.#.#.#.#.#.#.#.#.#.M d+{+2+e+f+g+h+.   ",
"  . i+j+9.$.F G G F F F F F F F k+0+0+0+0+0+l+m+n+F F F F F F F F F F F F F F o+2+e+f+p+=+q+.   ",
". r+s+#.$.F G t+u+u+u+u+u+u+u+u+v+0+0+0+0+0+0+0+w+x+u+u+u+u+u+u+u+u+u+u+u+u+u+J y+f+p+z+A+B+C+. ",
". D+E+$.F G H I J J J J J J J J F+0+0+0+0+0+0+0+0+G+H+I+J J J J J J J J J J J J a.p+z+A+J+K+L+. ",
". M+N+F G H I L L L L L L L L L H+0+0+0+0+0+0+0+0+0+0+O+P+Q+L L L L L L L L L L O R+A+J+S+T+U+. ",
". V+W+G H I N+N N N N N N N N N X+0+0+0+0+0+0+0+0+0+0+0+0+Y+Z+`+N N N N N N N N  @d+J+S+.@+@@@. ",
". #@G H I J N $@$@$@$@$@$@$@$@$@%@0+0+0+0+0+0+0+0+0+0+0+0+0+&@*@=@$@$@$@$@$@$@$@$@E.S+.@+@-@;@. ",
". >@H I J K P Q Q Q Q Q Q Q Q Q ,@0+0+0+0+0+0+0+0+0+0+0+0+0+0+0+'@)@!@Q Q Q Q Q Q ~@.@+@-@{@]@. ",
". ^@I J K L /@(@(@(@(@(@(@(@(@(@_@0+0+0+0+0+0+0+0+0+0+0+0+0+0+0+0+0+:@(@(@(@(@(@(@o++@-@{@<@[@. ",
". }@J K L M =.|@|@|@|@|@|@|@|@|@_@0+0+0+0+0+0+0+0+0+0+0+0+0+0+0+0+0+1@|@|@|@|@|@|@<.-@{@<@2@3@. ",
". 4@K L M N 5@:.:.:.:.:.:.:.:.:.6@0+0+0+0+0+0+0+0+0+0+0+0+0+0+0+0+0+7@:.:.:.:.:.:.~@{@<@2@8@9@. ",
". 0@L M N O <.a.a.a.a.a.a.a.a.a.a@0+0+0+0+0+0+0+0+0+0+0+0+0+0+0+0+b@c@a.a.a.a.a.a.D.<@2@8@d@e@. ",
". f@M N O P g@p.p.p.p.p.p.p.p.p.h@0+0+0+0+0+0+0+0+0+0+0+0+0+0+i@j@k@)+p.p.p.p.p.p.l@2@8@d@m@n@. ",
". o@p@O P Q o+D.D.D.D.D.D.D.D.D.q@0+0+0+0+0+0+0+0+0+0+0+0+r@s@t@u@E.D.D.D.D.D.D.D.e+8@d@m@v@w@. ",
"  . x@P Q %.:.P.P.P.P.P.P.P.P.P.y@0+0+0+0+0+0+0+0+0+0+&@z@A@A+F.P.P.P.P.P.P.P.P.P.B@d@m@C@D@.   ",
"  . E@Q %.&.F@l@G@G@G@G@G@G@G@G@H@0+0+0+0+0+0+0+0+0+I@J@K@~+G@G@G@G@G@G@G@G@G@G@&+L@m@C@M@N@.   ",
"  . O@&.&.*.=.E.d+d+d+d+d+d+d+d+P@0+0+0+0+0+0+0+Q@R@S@z+d+d+d+d+d+d+d+d+d+d+d+d+A+m@C@M@T@U@.   ",
"    . V@*.=._.g@W@ + + + + + + +X@0+0+0+0+0+Y@Z@`@ #2+ + + + + + + + + + + + +2+8@C@M@.#+#.     ",
"    . @#=._.:.<.l@f+f+f+f+f+f+f+##&@0+0+&@$#%#&#z+f+f+f+f+f+f+f+f+f+f+f+f+f+f+.@C@M@.#*#=#.     ",
"      . -#:.<.0.b.f+;#;#;#;#;#;#>#,#'#)#!#~#+@;#;#;#;#;#;#;#;#;#;#;#;#;#;#;#J+C@M@.#*#{#.       ",
"      . ]#^#0.a.b./#(#=+=+=+=+=+=+&#_#:#<#=+=+=+=+=+=+=+=+=+=+=+=+=+=+=+=+S+m@M@.#*#[#}#.       ",
"        . |#~@b.p.q.Q..@+@+@+@+@+@+@+@+@+@+@+@+@+@+@+@+@+@+@+@+@+@+@+@+@1#d@M@.#*#2#3#.         ",
"        . . 4#p.q.D.E.&+-@{@{@{@{@{@{@{@{@{@{@{@{@{@{@{@{@{@{@{@{@{@{@5#m@M@.#*#6#7#. .         ",
"          . 8#9#D.E.O.P.&+0#8@8@8@8@8@8@8@8@8@8@8@8@8@8@8@8@8@8@8@8@d@C@M@.#*#6#a#~..           ",
"            . ; b#O.P.Z.`.&+(#d@c#c#c#c#c#c#c#c#c#c#c#c#c#c#c#c#m@m@C@M@.#*#6#d#e#.             ",
"              . !.f#Q.`.&+*+~+2+.@g#v@v@v@v@v@v@v@v@v@v@v@v@h#i#c#C@M@.#*#j#k#Y .               ",
"                . . l#m#*+~+{+2+e+n#J+5#g#.#*#2#2#*#.#M@C@m@d@m@C@M@.#*#o#=#. .                 ",
"                    . p#q#r#2+e+f+p+z+A+J+S+.@1#T+ #<@2@8@d@m@C@M@.#s#t#u#.                     ",
"                      . . v#w#x#3+z+A+J+S+.@+@-@{@<@2@8@d@m@C@M@y#t#z#. .                       ",
"                          . . ; A#B#C#D#.@+@-@{@<@2@8@d@i#E#F#G#3.. .                           ",
"                              . . . + H#I#J#K#L#[@M#e@N#O#. . . .                               ",
"                                      . . . . . . . . . .                                       "};
