/* XPM */
static const char * play_dis_xpm[] = {
"48 48 165 2",
"  	g None",
". 	g #000000",
"+ 	g #0B0B0B",
"@ 	g #1D1D1D",
"# 	g #2C2C2C",
"$ 	g #363636",
"% 	g #3E3E3E",
"& 	g #3F3F3F",
"* 	g #373737",
"= 	g #030303",
"- 	g #1E1E1E",
"; 	g #5B5B5B",
"> 	g #6B6B6B",
", 	g #6F6F6F",
"' 	g #727272",
") 	g #757575",
"! 	g #797979",
"~ 	g #7A7A7A",
"{ 	g #767676",
"] 	g #737373",
"^ 	g #1F1F1F",
"/ 	g #090909",
"( 	g #323232",
"_ 	g #585858",
": 	g #636363",
"< 	g #666666",
"[ 	g #696969",
"} 	g #6C6C6C",
"| 	g #686868",
"1 	g #656565",
"2 	g #616161",
"3 	g #565656",
"4 	g #040404",
"5 	g #2F2F2F",
"6 	g #575757",
"7 	g #5D5D5D",
"8 	g #5F5F5F",
"9 	g #676767",
"0 	g #6E6E6E",
"a 	g #747474",
"b 	g #777777",
"c 	g #787878",
"d 	g #707070",
"e 	g #5E5E5E",
"f 	g #555555",
"g 	g #050505",
"h 	g #181818",
"i 	g #4B4B4B",
"j 	g #5A5A5A",
"k 	g #7C7C7C",
"l 	g #7B7B7B",
"m 	g #717171",
"n 	g #646464",
"o 	g #5C5C5C",
"p 	g #545454",
"q 	g #494949",
"r 	g #171717",
"s 	g #010101",
"t 	g #2A2A2A",
"u 	g #525252",
"v 	g #7D7D7D",
"w 	g #626262",
"x 	g #515151",
"y 	g #4E4E4E",
"z 	g #282828",
"A 	g #020202",
"B 	g #343434",
"C 	g #505050",
"D 	g #535353",
"E 	g #7E7E7E",
"F 	g #6D6D6D",
"G 	g #4F4F4F",
"H 	g #4C4C4C",
"I 	g #313131",
"J 	g #7F7F7F",
"K 	g #6A6A6A",
"L 	g #606060",
"M 	g #2D2D2D",
"N 	g #808080",
"O 	g #818181",
"P 	g #838383",
"Q 	g #848484",
"R 	g #828282",
"S 	g #464646",
"T 	g #2B2B2B",
"U 	g #868686",
"V 	g #4D4D4D",
"W 	g #444444",
"X 	g #1C1C1C",
"Y 	g #0A0A0A",
"Z 	g #454545",
"` 	g #858585",
" .	g #4A4A4A",
"..	g #131313",
"+.	g #474747",
"@.	g #404040",
"#.	g #121212",
"$.	g #0C0C0C",
"%.	g #A0A0A0",
"&.	g #CACACA",
"*.	g #BFBFBF",
"=.	g #8F8F8F",
"-.	g #242424",
";.	g #979797",
">.	g #FCFCFC",
",.	g #FFFFFF",
"'.	g #FAFAFA",
").	g #C1C1C1",
"!.	g #202020",
"~.	g #393939",
"{.	g #C2C2C2",
"].	g #F1F1F1",
"^.	g #ACACAC",
"/.	g #333333",
"(.	g #CECECE",
"_.	g #E1E1E1",
":.	g #989898",
"<.	g #595959",
"[.	g #111111",
"}.	g #FDFDFD",
"|.	g #0E0E0E",
"1.	g #1B1B1B",
"2.	g #F8F8F8",
"3.	g #B8B8B8",
"4.	g #CDCDCD",
"5.	g #ECECEC",
"6.	g #A2A2A2",
"7.	g #CCCCCC",
"8.	g #FEFEFE",
"9.	g #DBDBDB",
"0.	g #8D8D8D",
"a.	g #292929",
"b.	g #3D3D3D",
"c.	g #CBCBCB",
"d.	g #B6B6B6",
"e.	g #3A3A3A",
"f.	g #E2E2E2",
"g.	g #C0C0C0",
"h.	g #262626",
"i.	g #C9C9C9",
"j.	g #D4D4D4",
"k.	g #C8C8C8",
"l.	g #EDEDED",
"m.	g #929292",
"n.	g #141414",
"o.	g #C7C7C7",
"p.	g #060606",
"q.	g #C6C6C6",
"r.	g #C4C4C4",
"s.	g #3C3C3C",
"t.	g #DDDDDD",
"u.	g #151515",
"v.	g #C5C5C5",
"w.	g #EFEFEF",
"x.	g #919191",
"y.	g #B7B7B7",
"z.	g #909090",
"A.	g #D5D5D5",
"B.	g #414141",
"C.	g #353535",
"D.	g #272727",
"E.	g #484848",
"F.	g #070707",
"G.	g #303030",
"H.	g #080808",
"                                      . . . . . . . . . .                                       ",
"                              . . . . + @ # $ % & * # @ + . . . .                               ",
"                          . . = - & ; > , ' ) ! ~ { ] , > ; & ^ = . .                           ",
"                      . . / ( _ : < [ } , ' ) ! ~ { ] , } | 1 2 3 ( / . .                       ",
"                    . 4 5 6 7 8 : 9 0 a b c c c b { ) ] d } < 2 e ; f 5 g .                     ",
"                . . h i 6 j e > { k k l ~ ! c c b { ) ] ' ' m } n o 6 p q r . .                 ",
"              . s t u f j } l v k k l ~ ! c c b { ) ] ' ' m d , 0 } w 3 x y z s .               ",
"            . A B C D n l E v k k l ~ ! c c b { ) ] ' ' m d , 0 F } > | ; G H I A .             ",
"          . A B y p ' J E v k k l ~ ! c c b { ) ] ' ' m d , 0 F } > K [ | L y q ( A .           ",
"        . . M H 3 ~ N E v k k l ~ ! ! k J O P Q Q R N k { , F } > K [ | | 9 w y S T . .         ",
"        . @ q 6 k N E v k k l ~ k O U U U U U U U U U U U U v ' > [ | | 9 < 1 : V W X .         ",
"      . Y Z D k N E v k k l k R ` U U U U U U U U U U U U U U ` J d | 9 < 1 n : 2  .& Y .       ",
"      . B H ! N E v k k k N Q Q Q Q Q Q Q Q Q Q Q Q Q Q Q Q Q Q Q Q c | 1 n : : 2 7 Z 5 .       ",
"    . ..+., N E v k k k O R R R R R R R R R R R R R R R R R R R R R R v | : : 2 L 8 6 @.#..     ",
"    . B o J E v k k k N O O O O O O O O O O O O O O O O O O O O O O O O v 9 2 L 8 8 e H 5 .     ",
"  . $.+.~ E v k k k E J J J J J J %.&.*.=.J J J J J J J J J J J J J J J J l : 8 8 e 7 j @.+ .   ",
"  . -.2 E v k k l k v v v v v v ;.>.,.,.'.).Q v v v v v v v v v v v v v v v { 8 e 7 o ; H !..   ",
"  . ~.! v k k l l k k k k k k k {.,.,.,.,.,.].^.v k k k k k k k k k k k k k k > 7 o ; j 6 /..   ",
". g f v k k l ~ ~ ~ ~ ~ ~ ~ ~ ~ (.,.,.,.,.,.,.,._.:.~ ~ ~ ~ ~ ~ ~ ~ ~ ~ ~ ~ ~ c e ; j <.<.Z 4 . ",
". [.[ k k l ~ ! c c c c c c c c (.,.,.,.,.,.,.,.,.}.(.U c c c c c c c c c c c c [ j <.<.6 y |.. ",
". 1.b k l ~ ! b b b b b b b b b (.,.,.,.,.,.,.,.,.,.,.2.3.k b b b b b b b b b b ] <.<.6 3 p r . ",
". z l l ~ ! b ) ) ) ) ) ) ) ) ) 4.,.,.,.,.,.,.,.,.,.,.,.,.5.6.{ ) ) ) ) ) ) ) ) ) 8 6 3 f f ^ . ",
". B l ~ ! c ) ] ] ] ] ] ] ] ] ] 7.,.,.,.,.,.,.,.,.,.,.,.,.,.8.9.0.] ] ] ] ] ] ] ] 1 3 f f p -.. ",
". ~.~ ! c c ' ' ' ' ' ' ' ' ' ' 7.,.,.,.,.,.,.,.,.,.,.,.,.,.,.,.>.*.] ' ' ' ' ' ' [ f f p D a.. ",
". b.! c c b d , , , , , , , , , c.,.,.,.,.,.,.,.,.,.,.,.,.,.,.,.,.,.d., , , , , , > f p D u t . ",
". e.c c b { 0 0 0 0 0 0 0 0 0 0 c.,.,.,.,.,.,.,.,.,.,.,.,.,.,.,.,.,.f.0 0 0 0 0 0 > p D u x a.. ",
". * c b { ) } } } } } } } } } } &.,.,.,.,.,.,.,.,.,.,.,.,.,.,.,.,.,.g.} } } } } } [ D u x C h.. ",
". M b { ) ] > [ [ [ [ [ [ [ [ [ i.,.,.,.,.,.,.,.,.,.,.,.,.,.,.,.,.j.[ [ [ [ [ [ [ < u x C C ^ . ",
". @ { ) ] ' K | | | | | | | | | k.,.,.,.,.,.,.,.,.,.,.,.,.,.,.l.m.; 9 | | | | | | w x C C G n.. ",
". / ' ] ' ' > < < < < < < < < < o.,.,.,.,.,.,.,.,.,.,.,.,.2.^.o e 1 < < < < < < < o C C G H p.. ",
"  . 8 ' ' m } : : : : : : : : : q.,.,.,.,.,.,.,.,.,.,.8.r.< <.: : : : : : : : : : 3 C G y @..   ",
"  . s.' m d 0 w w w w w w w w w q.,.,.,.,.,.,.,.,.,.t.c u 8 w w w w w w w w w w L C G y H z .   ",
"  . u.d d , 0 1 8 8 8 8 8 8 8 8 v.,.,.,.,.,.,.,.w.x.V <.8 8 8 8 8 8 8 8 8 8 8 8 <.G y H i |..   ",
"    . f , 0 F K e 7 7 7 7 7 7 7 y.,.,.,.,.,.'.^.x D 7 7 7 7 7 7 7 7 7 7 7 7 7 7 C y H H ~..     ",
"    . !.0 F } > w ; ; ; ; ; ; ; R 8.,.,.8.o.8 i <.; ; ; ; ; ; ; ; ; ; ; ; ; ; f y H H i u..     ",
"      . x } > K | ; <.<.<.<.<.<.x z.A.r.] Z f <.<.<.<.<.<.<.<.<.<.<.<.<.<.<.6 y H H i * .       ",
"      . [.9 K [ | 1 _ 6 6 6 6 6 6 i B.W G 6 6 6 6 6 6 6 6 6 6 6 6 6 6 6 6 3 G H H i +.+ .       ",
"        . M [ | | 9 2 f f f f f f f f f f f f f f f f f f f f f f f f f p C H H i  .^ .         ",
"        . . B.| 9 < 1 L p D D D D D D D D D D D D D D D D D D D D D D u G H H i  .M . .         ",
"          . A q < 1 n : L p C C C C C C C C C C C C C C C C C C C C C y H H i  ./.A .           ",
"            . = W n : : 2 L _ C y y y y y y y y y y y y y y y y G G y H H i  .I s .             ",
"              . s C.2 2 L 8 8 7 f G H H H H H H H H H H H H V y y y H H i q D.s .               ",
"                . . X 6 8 8 e 7 o ; 6 u G H i  . .i H H y G C G y H H i B.u.. .                 ",
"                    . p.B ; 7 o ; j <.<.6 3 f p p D u x C C G y H H E.z = .                     ",
"                      . . Y ( p j <.<.6 3 f f p D u x C C G y H Z z F.. .                       ",
"                          . . = @ * V 3 f f p D u x C C y W G.h A . .                           ",
"                              . . . . / r !.h.T t h.^ n.H.. . . .                               ",
"                                      . . . . . . . . . .                                       "};
