/* XPM */
static const char * shutdown_dis_xpm[] = {
"48 48 162 2",
"  	g None",
". 	g #000000",
"+ 	g #050505",
"@ 	g #0D0D0D",
"# 	g #141414",
"$ 	g #181818",
"% 	g #1C1C1C",
"& 	g #1B1B1B",
"* 	g #010101",
"= 	g #292929",
"- 	g #303030",
"; 	g #313131",
"> 	g #333333",
", 	g #343434",
"' 	g #363636",
") 	g #353535",
"! 	g #323232",
"~ 	g #2F2F2F",
"{ 	g #0E0E0E",
"] 	g #040404",
"^ 	g #161616",
"/ 	g #272727",
"( 	g #2C2C2C",
"_ 	g #2D2D2D",
": 	g #2E2E2E",
"< 	g #171717",
"[ 	g #020202",
"} 	g #151515",
"| 	g #2B2B2B",
"1 	g #3C3C3C",
"2 	g #474747",
"3 	g #4E4E4E",
"4 	g #525252",
"5 	g #555555",
"6 	g #545454",
"7 	g #484848",
"8 	g #414141",
"9 	g #393939",
"0 	g #0B0B0B",
"a 	g #222222",
"b 	g #282828",
"c 	g #3E3E3E",
"d 	g #515151",
"e 	g #5C5C5C",
"f 	g #5B5B5B",
"g 	g #5A5A5A",
"h 	g #595959",
"i 	g #575757",
"j 	g #565656",
"k 	g #535353",
"l 	g #505050",
"m 	g #454545",
"n 	g #373737",
"o 	g #131313",
"p 	g #252525",
"q 	g #262626",
"r 	g #2A2A2A",
"s 	g #434343",
"t 	g #5F5F5F",
"u 	g #5D5D5D",
"v 	g #4F4F4F",
"w 	g #4C4C4C",
"x 	g #4B4B4B",
"y 	g #242424",
"z 	g #3B3B3B",
"A 	g #606060",
"B 	g #4A4A4A",
"C 	g #494949",
"D 	g #444444",
"E 	g #232323",
"F 	g #616161",
"G 	g #5E5E5E",
"H 	g #464646",
"I 	g #3D3D3D",
"J 	g #3F3F3F",
"K 	g #424242",
"L 	g #212121",
"M 	g #383838",
"N 	g #404040",
"O 	g #1F1F1F",
"P 	g #3A3A3A",
"Q 	g #090909",
"R 	g #202020",
"S 	g #060606",
"T 	g #585858",
"U 	g #101010",
"V 	g #BCBCBC",
"W 	g #FBFBFB",
"X 	g #FFFFFF",
"Y 	g #DBDBDB",
"Z 	g #666666",
"` 	g #DEDEDE",
" .	g #F2F2F2",
"..	g #7E7E7E",
"+.	g #D6D6D6",
"@.	g #F7F7F7",
"#.	g #6F6F6F",
"$.	g #EFEFEF",
"%.	g #191919",
"&.	g #030303",
"*.	g #757575",
"=.	g #F8F8F8",
"-.	g #727272",
";.	g #F1F1F1",
">.	g #A8A8A8",
",.	g #080808",
"'.	g #939393",
").	g #B2B2B2",
"!.	g #070707",
"~.	g #0C0C0C",
"{.	g #7B7B7B",
"].	g #F9F9F9",
"^.	g #767676",
"/.	g #656565",
"(.	g #898989",
"_.	g #F5F5F5",
":.	g #D4D4D4",
"<.	g #0F0F0F",
"[.	g #E0E0E0",
"}.	g #D2D2D2",
"|.	g #1A1A1A",
"1.	g #DCDCDC",
"2.	g #CFCFCF",
"3.	g #D9D9D9",
"4.	g #CACACA",
"5.	g #868686",
"6.	g #FEFEFE",
"7.	g #919191",
"8.	g #121212",
"9.	g #707070",
"0.	g #FCFCFC",
"a.	g #848484",
"b.	g #737373",
"c.	g #FDFDFD",
"d.	g #878787",
"e.	g #8C8C8C",
"f.	g #FAFAFA",
"g.	g #BABABA",
"h.	g #CCCCCC",
"i.	g #111111",
"j.	g #A0A0A0",
"k.	g #B7B7B7",
"l.	g #8A8A8A",
"m.	g #B1B1B1",
"n.	g #AEAEAE",
"o.	g #C3C3C3",
"p.	g #888888",
"q.	g #858585",
"r.	g #ADADAD",
"s.	g #C2C2C2",
"t.	g #D1D1D1",
"u.	g #ABABAB",
"v.	g #BEBEBE",
"w.	g #C0C0C0",
"x.	g #B6B6B6",
"y.	g #6B6B6B",
"z.	g #676767",
"A.	g #9A9A9A",
"B.	g #909090",
"C.	g #1D1D1D",
"D.	g #1E1E1E",
"E.	g #0A0A0A",
"                                    . . . . . . . . . . . .                                     ",
"                              . . . . + @ # $ % & $ # @ + . . . .                               ",
"                          . . * @ % = - ; > , ' ) , ! ; ~ = % { * . .                           ",
"                      . . ] ^ / ( _ ~ - ; > , ' ) , ! ; - : _ ( / < ] . .                       ",
"                  . . [ } / = | ( - 1 2 3 4 5 5 6 4 3 7 8 9 ~ ( | = / ^ [ . .                   ",
"                . . 0 a / b | c d e e f g h i j 5 6 k 4 d l 3 m n | b / a 0 . .                 ",
"              . . o p q r s g t u e f g h i j 5 6 k 4 d l v 3 w x 7 9 = q p o . .               ",
"            . * $ y p z g A t u e f g h i j 5 6 k 4 d l v 3 w x B C 7 D ! p y $ * .             ",
"          . * $ E b 3 F A G u e f g h i j 5 6 k 4 d l v 3 w x B C 7 2 H m z / E $ * .           ",
"        . . # a _ h F A G u e f g h j 3 H 8 I z z I J K 2 B B C 7 2 H m s K c = a } . .         ",
"        . { L ~ u F A t u e f g l K M ' ' ' ' ' ' ' ' ' ' n 1 s H H m s K 8 N 1 b L { .         ",
"      . + O ( u F A t u e f 4 c ' ' ' ' ' ' ' ' ' ' ' ' ' ' ' ' 9 8 s K 8 N c I P q O + .       ",
"    . . < q g F A G u e h D ' ' ' ' ' ' ' ' ' ' ' ' ' ' ' ' ' ' ' ' P N N c I 1 z n E < . .     ",
"    . Q R 3 F A G u e i 1 ' ' ' ' ' ' ' ' ' ' ' ' ' ' ' ' ' ' ' ' ' ' n I I 1 z P 9 ! R Q .     ",
"  . . $ M F A t u e j P ) ) ) ) ) ) ) ) ) ) ) ) ) ) ) ) ) ) ) ) ) ) ) ) ' z z P 9 M ' b $ . .   ",
"  . S a f A t u e T P ) ) ) ) ) z 8 ) ) ) ) ) ) ) ) ) ) ) ' h F I ) ) ) ) ' 9 9 M ' ) > R S .   ",
"  . U c A G u e f J ) ) ) ) H V W X Y Z ) ) ) ) ) ) ) ) f ` X X  ...) ) ) ) ' n ' ) , > = U .   ",
". . & h G u e f x ) ) ) ) 9 +.X X X X @.#.) ) ) ) ) ) G $.X X X X W t ) ) ) ) ) ) , > ! - %.. . ",
". &.> t u e f T ' , , , , *.X X X X X X =.-., , , , F ;.X X X X X X >., , , , , , > ! ! - E [ . ",
". ,.2 u e f g 2 , , , , , '.X X X X X X X =.-., , F ;.X X X X X X X )., , , , , > ! ! - ~ = !.. ",
". ~.i e f g T M , , , , , {.X X X X X X X X ].^./. .X X X X X X X X (., , , , , > ; - ~ : | 0 . ",
". < e f g h v > > > > > > K ` X X X X X X X X W _.X X X X X X X X :.K > > > > > > ; ~ : _ | <.. ",
". a f g h i D > > > > > > , T [.X X X X X X X X X X X X X X X X }.v > > > > > > > ; : _ | r # . ",
". = g h i j I > > > > > > > ) 5 [.X X X X X X X X X X X X X X }.x > > > > > > > > ; _ | r = |.. ",
". | h i j 5 M ! ! ! ! ! ! ! ! > k 1.X X X X X X X X X X X X 2.C > ! ! ! ! ! ! ! ! ; | r = b < . ",
". r i j 5 6 ) ! ! ! ! ! ! ! ! ! > 3 3.X X X X X X X X X X 4.m ! ! ! ! ! ! ! ! ! ! ; r = b / # . ",
". b j 5 6 k , ; ; ; ; ; ; ; ; ; ; ! 5.6.X X X X X X X X 6.7.; ; ; ; ; ; ; ; ; ; ; - = b / q 8.. ",
". L 5 6 k 4 ' ; ; ; ; ; ; ; ; ; ; 9.=.X X X X X X X X X X 0.a.; ; ; ; ; ; ; ; ; ; ~ b / q p { . ",
". } 6 k 4 d 9 - - - - - - - - - b.].X X X X X X X X X X X X c.d.- - - - - - - - - : / q p y Q . ",
". S d 4 d l I - - - - - - - - ^.W X X X X X X X X X X X X X X 6.e.- - - - - - - - | q p y a &.. ",
". . s d l v D - - - - - - - *.f.X X X X X X X X X X X X X X X X c.(.- - - - - - - = p y E % . . ",
"  . r l v 3 x - ~ ~ ~ ~ ~ k =.X X X X X X X X g.h.X X X X X X X X W d ~ ~ ~ ~ ~ : p y E a i..   ",
"  . { 3 3 w x P ~ ~ ~ ~ ~ j.X X X X X X X 6.k.! n 4.X X X X X X X X l.~ ~ ~ ~ ~ r y E a R S .   ",
"  . . z w x B m : : : : : m.X X X X X X 6.n.~ : : , o.X X X X X X X p.: : : : : p E a R $ . .   ",
"    . ^ x B C 7 9 _ _ _ _ q.X X X X X X r._ _ _ _ _ ; s.X X X X X f.B _ _ _ _ = E a R O Q .     ",
"    . . n C 7 2 D - _ _ _ ! t.X X X X u.r _ _ _ _ _ _ : v.X X X W ..| _ _ _ | E a R O ^ . .     ",
"      . ~.m 2 H m J _ ( ( ( : (.w.x.y./ ( ( ( ( ( ( ( ( / z.A.B.7 b ( ( ( ( y a R O C.+ .       ",
"        . C.H m s K z _ ( ( | q E E b ( ( ( ( ( ( ( ( ( ( b p q r ( ( ( | p a R O D.@ .         ",
"        . . r s K 8 N P ( | | | | | | | | | | | | | | | | | | | | | | r p a R O D.8.. .         ",
"          . * ~ 8 N c I 9 : | | | | | | | | | | | | | | | | | | | | = E a R O D.} * .           ",
"            . * | c I 1 z 9 ! r r r r r r r r r r r r r r r r r = q E a R O D.# * .             ",
"              . . L 1 z P 9 M ) - | = = = = = = = = = = = = = / y E a R O D.U . .               ",
"                . . i.> 9 M ' ) , > ; _ | = = b b b b b / / p y E a R O & Q . .                 ",
"                  . . &.D.) ) , > ! ! - ~ : _ ( | = b / q p y E a R D.U [ . .                   ",
"                      . . S C.~ ! ; - ~ : _ | r = b / q p y E a D.i.&.. .                       ",
"                          . . * <.D.r _ _ | r = b / q p E D.} E.* . .                           ",
"                              . . . . ] ~.U # } # 8.{ Q &.. . . .                               ",
"                                    . . . . . . . . . . . .                                     "};
