/* XPM */
static const char * shutdown_xpm[] = {
"48 48 567 2",
"  	c None",
". 	c #000000",
"+ 	c #010000",
"@ 	c #170000",
"# 	c #3D0000",
"$ 	c #5D0000",
"% 	c #730000",
"& 	c #820000",
"* 	c #810000",
"= 	c #710000",
"- 	c #5C0000",
"; 	c #060000",
"> 	c #3F0000",
", 	c #840000",
"' 	c #C00000",
") 	c #E00000",
"! 	c #E80000",
"~ 	c #EE0000",
"{ 	c #F60000",
"] 	c #FC0000",
"^ 	c #FA0000",
"/ 	c #F30000",
"( 	c #EC0000",
"_ 	c #E60000",
": 	c #DE0000",
"< 	c #BF0000",
"[ 	c #850000",
"} 	c #420000",
"| 	c #070000",
"1 	c #130000",
"2 	c #690000",
"3 	c #B90000",
"4 	c #CF0000",
"5 	c #D50000",
"6 	c #DC0000",
"7 	c #E20000",
"8 	c #DA0000",
"9 	c #D40000",
"0 	c #CE0000",
"a 	c #6A0000",
"b 	c #150000",
"c 	c #0A0000",
"d 	c #640000",
"e 	c #B70000",
"f 	c #C30000",
"g 	c #CA0000",
"h 	c #D80300",
"i 	c #E31100",
"j 	c #EB1D00",
"k 	c #EE2600",
"l 	c #F02C00",
"m 	c #EF3000",
"n 	c #ED3100",
"o 	c #EB3000",
"p 	c #EA2D00",
"q 	c #E72800",
"r 	c #E52100",
"s 	c #E11800",
"t 	c #DC0E00",
"u 	c #D50300",
"v 	c #C90000",
"w 	c #C20000",
"x 	c #B80000",
"y 	c #660000",
"z 	c #0B0000",
"A 	c #320000",
"B 	c #9F0000",
"C 	c #BD0000",
"D 	c #C50200",
"E 	c #DB1500",
"F 	c #EC2B00",
"G 	c #F53800",
"H 	c #F43800",
"I 	c #F23700",
"J 	c #F03600",
"K 	c #EE3500",
"L 	c #EC3400",
"M 	c #EA3300",
"N 	c #E93200",
"O 	c #E73100",
"P 	c #E53000",
"Q 	c #E32F00",
"R 	c #E12E00",
"S 	c #DF2D00",
"T 	c #DD2B00",
"U 	c #D82000",
"V 	c #CF1000",
"W 	c #C30200",
"X 	c #A00000",
"Y 	c #330000",
"Z 	c #020000",
"` 	c #590000",
" .	c #AC0000",
"..	c #B30000",
"+.	c #BC0300",
"@.	c #DB1D00",
"#.	c #F43600",
"$.	c #F73B00",
"%.	c #F63900",
"&.	c #DE2C00",
"*.	c #DC2B00",
"=.	c #DA2A00",
"-.	c #D82900",
";.	c #D52500",
">.	c #C91400",
",.	c #B90200",
"'.	c #B20000",
").	c #5B0000",
"!.	c #030000",
"~.	c #6F0000",
"{.	c #A90000",
"].	c #AE0000",
"^.	c #CD1600",
"/.	c #F93C00",
"(.	c #D62800",
"_.	c #D52700",
":.	c #D32600",
"<.	c #CF2200",
"[.	c #BD0E00",
"}.	c #AD0000",
"|.	c #700000",
"1.	c #050000",
"2.	c #040000",
"3.	c #A40000",
"4.	c #AF0400",
"5.	c #E32A00",
"6.	c #FB3D00",
"7.	c #F73A00",
"8.	c #D12500",
"9.	c #CF2400",
"0.	c #CD2300",
"a.	c #C31800",
"b.	c #AC0300",
"c.	c #720000",
"d.	c #600000",
"e.	c #B30A00",
"f.	c #F13500",
"g.	c #ED3200",
"h.	c #F02600",
"i.	c #F31A00",
"j.	c #F61200",
"k.	c #F80C00",
"l.	c #F90900",
"m.	c #F60C00",
"n.	c #F31000",
"o.	c #ED1600",
"p.	c #E41F00",
"q.	c #DA2700",
"r.	c #CB2100",
"s.	c #CA2000",
"t.	c #C41C00",
"u.	c #AB0600",
"v.	c #610000",
"w.	c #400000",
"x.	c #9C0000",
"y.	c #B30D00",
"z.	c #F22800",
"A.	c #F81200",
"B.	c #FD0300",
"C.	c #FE0000",
"D.	c #FC0200",
"E.	c #F00D00",
"F.	c #DE1C00",
"G.	c #D12400",
"H.	c #CB2200",
"I.	c #C81F00",
"J.	c #C61E00",
"K.	c #C11B00",
"L.	c #A80600",
"M.	c #410000",
"N.	c #920000",
"O.	c #AD0A00",
"P.	c #F32A00",
"Q.	c #FA0C00",
"R.	c #FD0000",
"S.	c #F30700",
"T.	c #D91A00",
"U.	c #C31D00",
"V.	c #C11C00",
"W.	c #BE1900",
"X.	c #A30500",
"Y.	c #930000",
"Z.	c #180000",
"`.	c #6E0000",
" +	c #A10500",
".+	c #F23500",
"++	c #F81600",
"@+	c #E80C00",
"#+	c #CA1E00",
"$+	c #C01B00",
"%+	c #BE1A00",
"&+	c #B81600",
"*+	c #9C0200",
"=+	c #2A0000",
"-+	c #950000",
";+	c #DE2B00",
">+	c #F33100",
",+	c #FA0A00",
"'+	c #F20500",
")+	c #CA1900",
"!+	c #BC1900",
"~+	c #BA1800",
"{+	c #B01100",
"]+	c #BB1700",
"^+	c #F33000",
"/+	c #FA0700",
"(+	c #FB0000",
"_+	c #F50300",
":+	c #C81700",
"<+	c #B81700",
"[+	c #B61600",
"}+	c #A20800",
"|+	c #1A0000",
"1+	c #960300",
"2+	c #F33300",
"3+	c #F90700",
"4+	c #FA0808",
"5+	c #FA0F0F",
"6+	c #FA0101",
"7+	c #FB2D2D",
"8+	c #FB3838",
"9+	c #FA0A0A",
"0+	c #F20300",
"a+	c #C11700",
"b+	c #B41500",
"c+	c #B11200",
"d+	c #930100",
"e+	c #4D0000",
"f+	c #C41D00",
"g+	c #F60F00",
"h+	c #F90000",
"i+	c #F91616",
"j+	c #FDABAB",
"k+	c #FEFAFA",
"l+	c #FFFFFF",
"m+	c #FED1D1",
"n+	c #FA3E3E",
"o+	c #FA3030",
"p+	c #FED5D5",
"q+	c #FEEFEF",
"r+	c #FB5C5C",
"s+	c #E90600",
"t+	c #B91600",
"u+	c #B31400",
"v+	c #B11300",
"w+	c #A10900",
"x+	c #4C0000",
"y+	c #7A0100",
"z+	c #EF3600",
"A+	c #F32000",
"B+	c #F80000",
"C+	c #F80606",
"D+	c #FDCCCC",
"E+	c #FEF5F5",
"F+	c #FA4949",
"G+	c #F93434",
"H+	c #FEEBEB",
"I+	c #F93535",
"J+	c #D20C00",
"K+	c #AF1200",
"L+	c #AB1000",
"M+	c #770000",
"N+	c #0C0000",
"O+	c #AE1300",
"P+	c #F13300",
"Q+	c #F60300",
"R+	c #F95151",
"S+	c #FEF7F7",
"T+	c #F94E4E",
"U+	c #F83838",
"V+	c #FEEEEE",
"W+	c #FB9191",
"X+	c #F20100",
"Y+	c #B81200",
"Z+	c #AD1200",
"`+	c #960500",
" @	c #240000",
".@	c #D22500",
"+@	c #F21B00",
"@@	c #F50000",
"#@	c #F97878",
"$@	c #F84E4E",
"%@	c #F73838",
"&@	c #FB9F9E",
"*@	c #D30900",
"=@	c #AA0F00",
"-@	c #A00A00",
";@	c #220000",
">@	c #390000",
",@	c #EE3400",
"'@	c #F30600",
")@	c #F55B54",
"!@	c #FEF8F8",
"~@	c #F75353",
"{@	c #F63E3E",
"]@	c #F46D62",
"^@	c #EC0100",
"/@	c #AE1100",
"(@	c #A80E00",
"_@	c #A40C00",
":@	c #360000",
"<@	c #520800",
"[@	c #F33800",
"}@	c #EE2800",
"|@	c #F20000",
"1@	c #ED1507",
"2@	c #F9D7CF",
"3@	c #FEF3F3",
"4@	c #F7CCC1",
"5@	c #EC1506",
"6@	c #BC0C00",
"7@	c #A60D00",
"8@	c #450100",
"9@	c #681100",
"0@	c #ED1900",
"a@	c #F00000",
"b@	c #F00100",
"c@	c #E33518",
"d@	c #F8DAD2",
"e@	c #F5C9BF",
"f@	c #E3290D",
"g@	c #CD0700",
"h@	c #A20B00",
"i@	c #4C0500",
"j@	c #731700",
"k@	c #ED0F00",
"l@	c #ED0300",
"m@	c #DE3316",
"n@	c #F7DAD4",
"o@	c #F4CAC0",
"p@	c #DE260B",
"q@	c #ED0100",
"r@	c #D90400",
"s@	c #550B00",
"t@	c #781900",
"u@	c #EC0800",
"v@	c #EB0200",
"w@	c #DA3116",
"x@	c #F6D6D0",
"y@	c #F2C6BD",
"z@	c #DB240B",
"A@	c #E10200",
"B@	c #9E0900",
"C@	c #530700",
"D@	c #721900",
"E@	c #EA0400",
"F@	c #EB0000",
"G@	c #E90200",
"H@	c #D62B13",
"I@	c #F4D2CC",
"J@	c #F0C0B7",
"K@	c #D72009",
"L@	c #EA0000",
"M@	c #E30100",
"N@	c #9D0800",
"O@	c #500400",
"P@	c #6D1800",
"Q@	c #E80400",
"R@	c #E60200",
"S@	c #E26E5F",
"T@	c #FEFEFE",
"U@	c #E67B6F",
"V@	c #E70000",
"W@	c #9F0900",
"X@	c #9B0700",
"Y@	c #4A0300",
"Z@	c #591300",
"`@	c #E60700",
" #	c #EE4E4E",
".#	c #FEFCFC",
"+#	c #F06767",
"@#	c #DB0100",
"##	c #990600",
"$#	c #3C0200",
"%#	c #390C00",
"&#	c #E30C00",
"*#	c #E40000",
"=#	c #ED5252",
"-#	c #FEFDFD",
";#	c #EF6B6B",
">#	c #D10200",
",#	c #970500",
"'#	c #270100",
")#	c #120300",
"!#	c #E12F00",
"~#	c #E01300",
"{#	c #EC5656",
"]#	c #EF7171",
"^#	c #C20300",
"/#	c #930400",
"(#	c #0D0000",
"_#	c #BA2600",
":#	c #DD1E00",
"<#	c #EA5656",
"[#	c #FEF9F9",
"}#	c #ED6E6E",
"|#	c #AF0500",
"1#	c #950400",
"2#	c #7B0200",
"3#	c #771800",
"4#	c #DA2800",
"5#	c #DD0200",
"6#	c #E32C2C",
"7#	c #E3AFA9",
"8#	c #EAC4C0",
"9#	c #E32A2A",
"0#	c #D90000",
"a#	c #9C0600",
"b#	c #940300",
"c#	c #4E0100",
"d#	c #280800",
"e#	c #DC2C00",
"f#	c #D91000",
"g#	c #DB0000",
"h#	c #EE8B8B",
"i#	c #E0ACA7",
"j#	c #BC0D04",
"k#	c #BA150B",
"l#	c #E8C2BE",
"m#	c #EB7070",
"n#	c #BF0200",
"o#	c #910200",
"p#	c #1B0000",
"q#	c #A82100",
"r#	c #D52100",
"s#	c #D80000",
"t#	c #F0A0A0",
"u#	c #DBA29E",
"v#	c #BA0A04",
"w#	c #D70000",
"x#	c #B7110A",
"y#	c #E4BAB7",
"z#	c #E66E6E",
"A#	c #A00400",
"B#	c #920200",
"C#	c #6E0100",
"D#	c #3E0C00",
"E#	c #D41000",
"F#	c #D60000",
"G#	c #DC6E6C",
"H#	c #D9A29F",
"I#	c #B60803",
"J#	c #B20F09",
"K#	c #E3B9B7",
"L#	c #FCF9F8",
"M#	c #CC2725",
"N#	c #900100",
"O#	c #290000",
"P#	c #A01D00",
"Q#	c #D30500",
"R#	c #BF0C0A",
"S#	c #E9CBCB",
"T#	c #D79F9D",
"U#	c #B20603",
"V#	c #D30000",
"W#	c #D20000",
"X#	c #AE0C09",
"Y#	c #E0B5B3",
"Z#	c #FDFBFB",
"`#	c #C46C69",
" $	c #CC0000",
".$	c #980400",
"+$	c #220600",
"@$	c #CB2400",
"#$	c #CD1B00",
"$$	c #D10100",
"%$	c #D10000",
"&$	c #A70D0B",
"*$	c #C57978",
"=$	c #E0B7B7",
"-$	c #DBACAB",
";$	c #B75756",
">$	c #AF0200",
",$	c #D00000",
"'$	c #AA0401",
")$	c #B55251",
"!$	c #CD8C8B",
"~$	c #C88180",
"{$	c #A72E2B",
"]$	c #BA0100",
"^$	c #CD0000",
"/$	c #9F0300",
"($	c #880000",
"_$	c #160000",
":$	c #580F00",
"<$	c #CA1700",
"[$	c #CE0100",
"}$	c #A60000",
"|$	c #BC0000",
"1$	c #B10000",
"2$	c #C50000",
"3$	c #CB0000",
"4$	c #A30300",
"5$	c #8E0000",
"6$	c #3B0000",
"7$	c #801500",
"8$	c #C51600",
"9$	c #CB0100",
"0$	c #C70000",
"a$	c #A20300",
"b$	c #570000",
"c$	c #8F1700",
"d$	c #C60500",
"e$	c #BD0100",
"f$	c #9C0300",
"g$	c #620000",
"h$	c #861400",
"i$	c #BC1800",
"j$	c #BF0D00",
"k$	c #C40100",
"l$	c #C10000",
"m$	c #AB0200",
"n$	c #960400",
"o$	c #5F0000",
"p$	c #680F00",
"q$	c #BE1B00",
"r$	c #B71400",
"s$	c #BB0B00",
"t$	c #C00300",
"u$	c #BC0100",
"v$	c #AB0300",
"w$	c #990500",
"x$	c #8D0000",
"y$	c #4A0000",
"z$	c #380700",
"A$	c #A81600",
"B$	c #B20F00",
"C$	c #B50900",
"D$	c #B90500",
"E$	c #BB0200",
"F$	c #BE0000",
"G$	c #B40200",
"H$	c #AC0400",
"I$	c #A20600",
"J$	c #7E0000",
"K$	c #280000",
"L$	c #0B0100",
"M$	c #660C00",
"N$	c #B11500",
"O$	c #A50C00",
"P$	c #A30B00",
"Q$	c #A10A00",
"R$	c #8B0100",
"S$	c #080000",
"T$	c #140200",
"U$	c #620B00",
"V$	c #A41100",
"W$	c #AD1100",
"X$	c #860200",
"Y$	c #4E0000",
"Z$	c #0E0000",
"`$	c #370500",
" %	c #6B0A00",
".%	c #950E00",
"+%	c #A60E00",
"@%	c #830300",
"#%	c #5C0200",
"$%	c #2E0000",
"%%	c #110100",
"&%	c #2C0300",
"*%	c #400400",
"=%	c #4B0500",
"-%	c #520500",
";%	c #510400",
">%	c #490300",
",%	c #280100",
"'%	c #0F0000",
"                                      . . . . . . . . . .                                       ",
"                              . . . + @ # $ % & * = - # @ + . . .                               ",
"                          . . ; > , ' ) ! ~ { ] ^ / ( _ : < [ } | . .                           ",
"                      . . 1 2 3 4 5 6 7 ! ~ { ] ^ / ( _ ) 8 9 0 3 a b . .                       ",
"                    . c d e f g 4 h i j k l m n o p q r s t u 0 v w x y z .                     ",
"                . . A B x C D E F G H I J K L M N O P Q R S T U V W C e X Y . .                 ",
"              . Z `  ...+.@.#.$.%.H I J K L M N O P Q R S &.*.=.-.;.>.,.'. .).Z .               ",
"            . !.~.{.].^.#./.$.%.H I J K L M N O P Q R S &.*.=.-.(._.:.<.[.}.{.|.1..             ",
"          . 2.~.3.4.5.6./.7.%.H I J K L M N O P Q R S &.*.=.-.(._.:.8.9.0.a.b.3.c.2..           ",
"        . . d.X e.f.6./.7.%.H I J K g.h.i.j.k.l.l.m.n.o.p.q.(._.:.8.9.0.r.s.t.u.X v.. .         ",
"        . w.x.y.%.6./.$.%.H I J z.A.B.C.C.C.C.C.C.C.C.C.C.D.E.F.G.9.0.H.s.I.J.K.L.x.M..         ",
"      . @ N.O.%.6./.$.%.H I P.Q.R.C.C.C.C.C.C.C.C.C.C.C.C.C.C.R.S.T.H.s.I.J.U.V.W.X.Y.Z..       ",
"      . `. +J 6./.7.%.H .+++R.R.R.R.R.R.R.R.R.R.R.R.R.R.R.R.R.R.R.R.@+#+J.U.V.$+%+&+*+`..       ",
"    . =+-+;+6./.7.%.H >+,+] ] ] ] ] ] ] ] ] ] ] ] ] ] ] ] ] ] ] ] ] ] '+)+V.$+%+!+~+{+-+=+.     ",
"    . |.]+6./.$.%.H ^+/+(+(+(+(+(+(+(+(+(+(+(+(+(+(+(+(+(+(+(+(+(+(+(+(+_+:+%+!+~+<+[+}+|..     ",
"  . |+1+I /.$.%.H 2+3+^ ^ ^ ^ ^ 4+5+^ ^ ^ ^ ^ ^ ^ ^ ^ ^ ^ 6+7+8+9+^ ^ ^ ^ 0+a+~+<+[+b+c+d+|+.   ",
"  . e+f+/.7.%.H I g+h+h+h+h+i+j+k+l+m+n+h+h+h+h+h+h+h+h+o+p+l+l+q+r+h+h+h+h+s+t+[+b+u+v+w+x+.   ",
"  . y+z+7.%.H I A+B+B+B+B+C+D+l+l+l+l+E+F+B+B+B+B+B+B+G+H+l+l+l+l+k+I+B+B+B+B+J+b+u+v+K+L+M+.   ",
". N+O+$.%.H I P+Q+{ { { { R+l+l+l+l+l+l+S+T+{ { { { U+V+l+l+l+l+l+l+W+{ { { { X+Y+v+K+Z+L+`+z . ",
".  @.@%.H I J +@@@@@@@@@@@#@l+l+l+l+l+l+l+S+$@@@@@%@V+l+l+l+l+l+l+l+&@@@@@@@@@@@*@K+Z+L+=@-@;@. ",
". >@L H I J ,@'@/ / / / / )@l+l+l+l+l+l+l+l+!@~@{@q+l+l+l+l+l+l+l+l+]@/ / / / / ^@/@L+=@(@_@:@. ",
". <@[@I J K }@|@|@|@|@|@|@1@2@l+l+l+l+l+l+l+l+k+3@l+l+l+l+l+l+l+l+4@5@|@|@|@|@|@|@6@=@(@7@_@8@. ",
". 9@I J K L 0@a@a@a@a@a@a@b@c@d@l+l+l+l+l+l+l+l+l+l+l+l+l+l+l+l+e@f@a@a@a@a@a@a@a@g@(@7@_@h@i@. ",
". j@J K L M k@~ ~ ~ ~ ~ ~ ~ l@m@n@l+l+l+l+l+l+l+l+l+l+l+l+l+l+o@p@q@~ ~ ~ ~ ~ ~ ~ r@7@_@h@-@s@. ",
". t@K L M N u@( ( ( ( ( ( ( ( v@w@x@l+l+l+l+l+l+l+l+l+l+l+l+y@z@^@( ( ( ( ( ( ( ( A@_@h@-@B@C@. ",
". D@L M N O E@F@F@F@F@F@F@F@F@F@G@H@I@l+l+l+l+l+l+l+l+l+l+J@K@L@F@F@F@F@F@F@F@F@F@M@h@-@B@N@O@. ",
". P@M N O P Q@! ! ! ! ! ! ! ! ! ! R@S@T@l+l+l+l+l+l+l+l+T@U@V@! ! ! ! ! ! ! ! ! ! 7 -@W@N@X@Y@. ",
". Z@N O P Q `@_ _ _ _ _ _ _ _ _ _  #S+l+l+l+l+l+l+l+l+l+l+.#+#_ _ _ _ _ _ _ _ _ _ @#W@N@X@##$#. ",
". %#O P Q R &#*#*#*#*#*#*#*#*#*#=#!@l+l+l+l+l+l+l+l+l+l+l+l+-#;#*#*#*#*#*#*#*#*#*#>#N@X@##,#'#. ",
". )#!#Q R S ~#7 7 7 7 7 7 7 7 {#k+l+l+l+l+l+l+l+l+l+l+l+l+l+l+T@]#7 7 7 7 7 7 7 7 ^#X@##,#/#(#. ",
"  . _#R S &.:#) ) ) ) ) ) ) <#[#l+l+l+l+l+l+l+l+l+l+l+l+l+l+l+l+-#}#) ) ) ) ) ) ) |###,#1#2#.   ",
"  . 3#S &.*.4#5#: : : : : 6#S+l+l+l+l+l+l+l+l+7#8#l+l+l+l+l+l+l+l+k+9#: : : : : 0#a#,#1#b#c#.   ",
"  . d#e#*.=.-.f#g#g#g#g#g#h#l+l+l+l+l+l+l+T@i#j#k#l#l+l+l+l+l+l+l+l+m#g#g#g#g#g#n#,#1#b#o#p#.   ",
"    . q#=.-.(.r#s#0#0#0#0#t#l+l+l+l+l+l+T@u#v#s#w#x#y#l+l+l+l+l+l+l+z#0#0#0#0#w#A#1#b#B#C#.     ",
"    . D#-.(._.:.E#F#F#F#F#G#l+l+l+l+l+l+H#I#5 F#F#9 J#K#l+l+l+l+l+L#M#F#F#F#F#,.1#b#B#N#O#.     ",
"      . P#_.:.8.<.Q#9 9 9 R#S#l+l+l+l+T#U#V#9 9 9 9 W#X#Y#l+l+l+Z#`# $9 9 9 g .$b#B#N#2 .       ",
"      . +$@$8.9.0.#$$$%$%$4 &$*$=$-$;$>$%$%$%$%$%$%$%$,$'$)$!$~${$]$%$%$%$^$/$b#B#N#($_$.       ",
"        . :$9.0.r.s.<$[$0 0  $..3.}$|$0 0 0 0 0 0 0 0 0 0 C ].1$2$0 0 0 3$4$b#B#N#5$6$.         ",
"        . + 7$H.s.I.J.8$9$3$3$3$3$3$3$3$3$3$3$3$3$3$3$3$3$3$3$3$3$3$3$0$a$b#B#N#5$b$. .         ",
"          . 1.c$I.J.U.V.a+d$v v v v v v v v v v v v v v v v v v v v e$f$b#B#N#5$g$!..           ",
"            . ; h$U.V.$+%+i$j$k$2$2$2$2$2$2$2$2$2$2$2$2$2$2$2$2$l$m$n$b#B#N#5$o$!..             ",
"              . Z p$q$%+!+~+<+r$s$t$w w w w w w w w w w w w u$v$w$1#b#B#N#x$y$+ .               ",
"                . . z$A$~+<+[+b+u+v+B$C$D$E$e$F$F$|$]$G$H$I$##,#1#b#B#N#J$K$. .                 ",
"                    . L$M$N$b+u+v+K+Z+L+=@(@7@O$P$Q$W@N@X@##,#1#b#B#R$e+S$.                     ",
"                      . . T$U$V$K+W$L+=@(@7@_@h@-@B@N@X@##,#1#b#X$Y$Z$. .                       ",
"                          . . ; `$ %.%+%7@_@h@-@B@N@X@##`+@%#%$%2.. .                           ",
"                              . . . + %%&%*%=%-%;%>%$#,%'%. . . .                               ",
"                                      . . . . . . . . . .                                       "};
