/* XPM */
static const char * stop_xpm[] = {
"48 48 385 2",
"  	c None",
". 	c #000000",
"+ 	c #000001",
"@ 	c #000D13",
"# 	c #012332",
"$ 	c #01354B",
"% 	c #02425D",
"& 	c #024C69",
"* 	c #024D6A",
"= 	c #02435E",
"- 	c #01364C",
"; 	c #000305",
"> 	c #022436",
", 	c #044B6F",
"' 	c #056EA0",
") 	c #0581B9",
"! 	c #0586BE",
"~ 	c #058AC2",
"{ 	c #058EC7",
"] 	c #0493CB",
"^ 	c #0495CD",
"/ 	c #0490C9",
"( 	c #058BC3",
"_ 	c #0587BF",
": 	c #022537",
"< 	c #000406",
"[ 	c #000B11",
"} 	c #043B5B",
"| 	c #06699E",
"1 	c #0776AF",
"2 	c #077AB3",
"3 	c #067EB7",
"4 	c #0682BA",
"5 	c #067DB6",
"6 	c #0779B2",
"7 	c #0774AE",
"8 	c #07679D",
"9 	c #000B12",
"0 	c #000509",
"a 	c #043858",
"b 	c #0767A0",
"c 	c #086EA9",
"d 	c #0772AC",
"e 	c #087BB4",
"f 	c #0D83BA",
"g 	c #1289BE",
"h 	c #178CC0",
"i 	c #1A8DC1",
"j 	c #1B8DC0",
"k 	c #1C8CBF",
"l 	c #1C8BBE",
"m 	c #1B8ABE",
"n 	c #1889BD",
"o 	c #1587BC",
"p 	c #1284BA",
"q 	c #0D80B7",
"r 	c #087AB2",
"s 	c #0770AA",
"t 	c #086CA6",
"u 	c #08659E",
"v 	c #043758",
"w 	c #000609",
"x 	c #021C2D",
"y 	c #07598D",
"z 	c #0867A2",
"A 	c #086BA5",
"B 	c #0970AA",
"C 	c #107EB5",
"D 	c #198ABE",
"E 	c #1E91C2",
"F 	c #1F90C2",
"G 	c #1F8FC1",
"H 	c #1E8EC0",
"I 	c #1E8DBF",
"J 	c #1E8CBF",
"K 	c #1E8BBE",
"L 	c #1D8ABD",
"M 	c #1D89BC",
"N 	c #1D88BB",
"O 	c #1C86BA",
"P 	c #1C85B9",
"Q 	c #1C84B8",
"R 	c #1B83B7",
"S 	c #167EB4",
"T 	c #0F76AE",
"U 	c #096DA7",
"V 	c #09639F",
"W 	c #08568B",
"X 	c #021B2D",
"Y 	c #000101",
"Z 	c #043151",
"` 	c #08609B",
" .	c #09649F",
"..	c #096AA4",
"+.	c #137FB5",
"@.	c #1D90C3",
"#.	c #2092C4",
"$.	c #1F91C3",
"%.	c #1C83B7",
"&.	c #1B82B6",
"*.	c #1B81B5",
"=.	c #1B80B4",
"-.	c #197DB2",
";.	c #1173AA",
">.	c #0A65A0",
",.	c #095F9B",
"'.	c #095B96",
").	c #052F50",
"!.	c #000102",
"~.	c #000203",
"{.	c #063D65",
"].	c #095E99",
"^.	c #09619C",
"/.	c #1175AD",
"(.	c #2093C6",
"_.	c #1B7FB3",
":.	c #1A7DB2",
"<.	c #1A7CB1",
"[.	c #1879AF",
"}.	c #0F6AA3",
"|.	c #095C98",
"1.	c #0A5894",
"2.	c #063963",
"3.	c #000204",
"4.	c #063D66",
"5.	c #095B97",
"6.	c #0A629D",
"7.	c #1985BA",
"8.	c #2094C7",
"9.	c #1F92C4",
"0.	c #1A7BB1",
"a.	c #197AB0",
"b.	c #1979AF",
"c.	c #1470A7",
"d.	c #0B5B96",
"e.	c #0A5591",
"f.	c #073A65",
"g.	c #06345A",
"h.	c #0D649F",
"i.	c #1D8EC1",
"j.	c #2095C7",
"k.	c #2094C6",
"l.	c #2097C8",
"m.	c #2199CA",
"n.	c #219ACB",
"o.	c #2198C9",
"p.	c #1978AE",
"q.	c #1977AD",
"r.	c #1672A9",
"s.	c #0C5B96",
"t.	c #0A518E",
"u.	c #063157",
"v.	c #04223C",
"w.	c #095591",
"x.	c #0E659F",
"y.	c #1F91C4",
"z.	c #2097C9",
"A.	c #229CCD",
"B.	c #229DCE",
"C.	c #1F92C5",
"D.	c #1876AC",
"E.	c #1875AB",
"F.	c #1772A9",
"G.	c #0D5994",
"H.	c #0A4E8B",
"I.	c #04203A",
"J.	c #010C16",
"K.	c #09508A",
"L.	c #0D609B",
"M.	c #2198CA",
"N.	c #219CCD",
"O.	c #1874AA",
"P.	c #1773A9",
"Q.	c #1670A7",
"R.	c #0D5591",
"S.	c #0A4883",
"T.	c #010B15",
"U.	c #073C68",
"V.	c #0B5894",
"W.	c #1D8DC1",
"X.	c #229ACB",
"Y.	c #1978AD",
"Z.	c #1772A8",
"`.	c #1770A7",
" +	c #156CA3",
".+	c #0C4F8B",
"++	c #083663",
"@+	c #031628",
"#+	c #0B518E",
"$+	c #1981B6",
"%+	c #2096C8",
"&+	c #166FA6",
"*+	c #166EA6",
"=+	c #13649D",
"-+	c #0B4986",
";+	c #031426",
">+	c #083C6B",
",+	c #136AA3",
"'+	c #2196C8",
")+	c #1877AD",
"!+	c #176FA6",
"~+	c #166DA5",
"{+	c #166CA4",
"]+	c #0F5792",
"^+	c #083565",
"/+	c #010E19",
"(+	c #0C528E",
"_+	c #1E8EC2",
":+	c #1F93C6",
"<+	c #1E8FC3",
"[+	c #156BA3",
"}+	c #1468A0",
"|+	c #0C4885",
"1+	c #020C17",
"2+	c #05294A",
"3+	c #1570A8",
"4+	c #166EA5",
"5+	c #156AA2",
"6+	c #1569A1",
"7+	c #105792",
"8+	c #062445",
"9+	c #094274",
"0+	c #1D8DC0",
"a+	c #2493C4",
"b+	c #6CB6D7",
"c+	c #9ACDE4",
"d+	c #9CCEE4",
"e+	c #197CB1",
"f+	c #1568A0",
"g+	c #0A396C",
"h+	c #00060C",
"i+	c #11629B",
"j+	c #1F8EC0",
"k+	c #1F8EC1",
"l+	c #2D95C5",
"m+	c #CCE6F1",
"n+	c #FFFFFF",
"o+	c #156DA4",
"p+	c #14679F",
"q+	c #14669E",
"r+	c #0E4E89",
"s+	c #00050A",
"t+	c #021323",
"u+	c #187AAF",
"v+	c #A3D0E5",
"w+	c #14649D",
"x+	c #115994",
"y+	c #02101F",
"z+	c #041F37",
"A+	c #1D8BBE",
"B+	c #F1F7FB",
"C+	c #1467A0",
"D+	c #13639C",
"E+	c #126099",
"F+	c #041A31",
"G+	c #072E4A",
"H+	c #1E90C2",
"I+	c #1C88BB",
"J+	c #13629B",
"K+	c #13619A",
"L+	c #06233F",
"M+	c #0B3C58",
"N+	c #1C86B9",
"O+	c #136099",
"P+	c #082946",
"Q+	c #0D435E",
"R+	c #197AAF",
"S+	c #135F98",
"T+	c #092F4D",
"U+	c #0F4761",
"V+	c #1B82B7",
"W+	c #1B81B6",
"X+	c #135E98",
"Y+	c #09304E",
"Z+	c #0E435C",
"`+	c #1B7FB4",
" @	c #135D97",
".@	c #092F4E",
"+@	c #0D4058",
"@@	c #1A7EB2",
"#@	c #125C96",
"$@	c #082B47",
"%@	c #0B3448",
"&@	c #125B95",
"*@	c #07233A",
"=@	c #07222E",
"-@	c #197BB0",
";@	c #1771A8",
">@	c #125A94",
",@	c #041726",
"'@	c #020A0E",
")@	c #1C85B7",
"!@	c #115791",
"~@	c #01070C",
"{@	c #176E98",
"]@	c #EAF1F6",
"^@	c #14629B",
"/@	c #125993",
"(@	c #0E4979",
"_@	c #0E4662",
":@	c #1A80B5",
"<@	c #1771A7",
"[@	c #90B3CE",
"}@	c #125B96",
"|@	c #115792",
"1@	c #092E4D",
"2@	c #051821",
"3@	c #1A659D",
"4@	c #B1C6DA",
"5@	c #FEFEFE",
"6@	c #105690",
"7@	c #03101B",
"8@	c #15638B",
"9@	c #156CA4",
"0@	c #125893",
"a@	c #4574A3",
"b@	c #7598BA",
"c@	c #789ABC",
"d@	c #115691",
"e@	c #0C416E",
"f@	c #072534",
"g@	c #1469A1",
"h@	c #115590",
"i@	c #041829",
"j@	c #145E85",
"k@	c #14669F",
"l@	c #0C3E6A",
"m@	c #04141C",
"n@	c #1978AB",
"o@	c #1775AB",
"p@	c #14659E",
"q@	c #10518A",
"r@	c #020D16",
"s@	c #0A344A",
"t@	c #12619A",
"u@	c #10548F",
"v@	c #07233C",
"w@	c #0F4B6D",
"x@	c #125E98",
"y@	c #11548F",
"z@	c #0A3358",
"A@	c #000304",
"B@	c #11557B",
"C@	c #13609A",
"D@	c #0B3A63",
"E@	c #104F74",
"F@	c #125994",
"G@	c #0B3860",
"H@	c #000103",
"I@	c #0C3E5B",
"J@	c #115A94",
"K@	c #115892",
"L@	c #115993",
"M@	c #10538E",
"N@	c #082C4B",
"O@	c #062132",
"P@	c #146495",
"Q@	c #0F4A7F",
"R@	c #01070A",
"S@	c #0C3C5B",
"T@	c #15699F",
"U@	c #125F98",
"V@	c #10528B",
"W@	c #092E4E",
"X@	c #000408",
"Y@	c #020C12",
"Z@	c #0B3A59",
"`@	c #136195",
" #	c #0F4F85",
".#	c #01080E",
"+#	c #062133",
"@#	c #0C4063",
"##	c #11588A",
"$#	c #13639B",
"%#	c #0F4D80",
"&#	c #0B365B",
"*#	c #051B2D",
"=#	c #020A10",
"-#	c #051A29",
";#	c #07253C",
">#	c #082C47",
",#	c #09314E",
"'#	c #082B46",
")#	c #041727",
"!#	c #01090F",
"                                      . . . . . . . . . .                                       ",
"                              . . . + @ # $ % & * = - # @ + . . .                               ",
"                          . . ; > , ' ) ! ~ { ] ^ / ( _ ) ' , : < . .                           ",
"                      . . [ } | 1 2 3 4 ! ~ { ] ^ / ( _ 4 5 6 7 8 } 9 . .                       ",
"                    . 0 a b c d 1 e f g h i j k l m n o p q r 7 s t u v w .                     ",
"                . . x y z A B C D E F G H I J K L M N O P Q R S T U z V W X . .                 ",
"              . Y Z `  ...+.@.#.$.F G H I J K L M N O P Q %.&.*.=.-.;.>.,.'.).!..               ",
"            . ~.{.].^./.@.(.#.$.F G H I J K L M N O P Q %.&.*.=._.:.<.[.}.|.1.2.3..             ",
"          . ~.4.5.6.7.8.(.9.$.F G H I J K L M N O P Q %.&.*.=._.:.<.0.a.b.c.d.e.f.~..           ",
"        . . g.1.h.i.j.(.9.$.F G H I I F k.l.m.n.n.o.j.F M *._.:.<.0.a.b.p.q.r.s.t.u.. .         ",
"        . v.w.x.y.j.(.#.$.F G H $.z.A.B.B.B.B.B.B.B.B.B.B.A.C.P <.a.b.p.q.D.E.F.G.H.I..         ",
"      . J.K.L.y.j.(.#.$.F G $.M.N.A.A.A.A.A.A.A.A.A.A.A.A.A.A.N.k.&.p.q.D.E.O.P.Q.R.S.T..       ",
"      . U.V.W.j.(.9.$.F F j.n.X.X.X.X.X.X.X.X.X.X.X.X.X.X.X.X.X.X.n.J Y.E.O.P.Z.`. +.+++.       ",
"    . @+#+$+j.(.9.$.F F %+M.M.M.M.M.M.M.M.M.M.M.M.M.M.M.M.M.M.M.M.M.M.9.p.P.Z.`.&+*+=+-+;+.     ",
"    . >+,+8.(.#.$.F F j.'+'+'+'+'+'+'+'+'+'+'+'+'+'+'+'+'+'+'+'+'+'+'+'+C.)+`.!+*+~+{+]+^+.     ",
"  . /+(+_+(.#.$.F F :+8.8.8.8.8.8.8.8.8.8.8.8.8.8.8.8.8.8.8.8.8.8.8.8.8.8.<+P.*+~+{+[+}+|+1+.   ",
"  . 2+3+(.9.$.F G $.#.#.#.#.#.#.#.#.#.#.#.#.#.#.#.#.#.#.#.#.#.#.#.#.#.#.#.#.M 4+{+[+5+6+7+8+.   ",
"  . 9+0+9.$.F G G F F F F F F F F a+b+c+d+d+d+d+d+d+d+d+c+b+a+F F F F F F F F e+[+5+6+f+=+g+.   ",
". h+i+#.$.F G j+k+k+k+k+k+k+k+k+l+m+n+n+n+n+n+n+n+n+n+n+n+n+m+l+k+k+k+k+k+k+k+J o+6+f+p+q+r+s+. ",
". t+u+$.F G H I J J J J J J J J v+n+n+n+n+n+n+n+n+n+n+n+n+n+n+v+J J J J J J J J a.f+p+q+w+x+y+. ",
". z+A+F G H I L L L L L L L L L B+n+n+n+n+n+n+n+n+n+n+n+n+n+n+B+L L L L L L L L O C+q+w+D+E+F+. ",
". G+H+G H I A+N N N N N N N N N n+n+n+n+n+n+n+n+n+n+n+n+n+n+n+n+N N N N N N N N I+4+w+D+J+K+L+. ",
". M+G H I J N N+N+N+N+N+N+N+N+N+n+n+n+n+n+n+n+n+n+n+n+n+n+n+n+n+N+N+N+N+N+N+N+N+N+E.D+J+K+O+P+. ",
". Q+H I J K P Q Q Q Q Q Q Q Q Q n+n+n+n+n+n+n+n+n+n+n+n+n+n+n+n+Q Q Q Q Q Q Q Q Q R+J+K+O+S+T+. ",
". U+I J K L V+W+W+W+W+W+W+W+W+W+n+n+n+n+n+n+n+n+n+n+n+n+n+n+n+n+W+W+W+W+W+W+W+W+W+e+K+O+S+X+Y+. ",
". Z+J K L M =.`+`+`+`+`+`+`+`+`+n+n+n+n+n+n+n+n+n+n+n+n+n+n+n+n+`+`+`+`+`+`+`+`+`+<.O+S+X+ @.@. ",
". +@K L M N @@:.:.:.:.:.:.:.:.:.n+n+n+n+n+n+n+n+n+n+n+n+n+n+n+n+:.:.:.:.:.:.:.:.:.R+S+X+ @#@$@. ",
". %@L M N O <.a.a.a.a.a.a.a.a.a.n+n+n+n+n+n+n+n+n+n+n+n+n+n+n+n+a.a.a.a.a.a.a.a.a.D.X+ @#@&@*@. ",
". =@M N O P -@p.p.p.p.p.p.p.p.p.n+n+n+n+n+n+n+n+n+n+n+n+n+n+n+n+p.p.p.p.p.p.p.p.p.;@ @#@&@>@,@. ",
". '@)@O P Q e+D.D.D.D.D.D.D.D.D.n+n+n+n+n+n+n+n+n+n+n+n+n+n+n+n+D.D.D.D.D.D.D.D.D.5+#@&@>@!@~@. ",
"  . {@P Q %.:.P.P.P.P.P.P.P.P.P.]@n+n+n+n+n+n+n+n+n+n+n+n+n+n+]@P.P.P.P.P.P.P.P.P.^@&@>@/@(@.   ",
"  . _@Q %.&.:@;@<@<@<@<@<@<@<@<@[@n+n+n+n+n+n+n+n+n+n+n+n+n+n+[@<@<@<@<@<@<@<@<@&+}@>@/@|@1@.   ",
"  . 2@&.&.*.=.E.4+4+4+4+4+4+4+4+3@4@5@n+n+n+n+n+n+n+n+n+n+5@4@3@4+4+4+4+4+4+4+4+q+>@/@|@6@7@.   ",
"    . 8@*.=._.-@9@ + + + + + + +[+0@a@b@c@c@c@c@c@c@c@c@b@a@0@[+ + + + + + + +[+#@/@|@d@e@.     ",
"    . f@=._.:.<.;@6+6+6+6+6+6+6+6+g@D+#@}@}@}@}@}@}@}@}@#@D+g@6+6+6+6+6+6+6+6+J+/@|@d@h@i@.     ",
"      . j@:.<.0.b.6+k@k@k@k@k@k@k@k@k@k@k@k@k@k@k@k@k@k@k@k@k@k@k@k@k@k@k@k@w+/@|@d@h@l@.       ",
"      . m@n@0.a.b.o@p@=+=+=+=+=+=+=+=+=+=+=+=+=+=+=+=+=+=+=+=+=+=+=+=+=+=+D+>@|@d@h@q@r@.       ",
"        . s@R+b.p.q.Q.J+K+K+K+K+K+K+K+K+K+K+K+K+K+K+K+K+K+K+K+K+K+K+K+K+t@&@|@d@h@u@v@.         ",
"        . . w@p.q.D.E.&+O+S+S+S+S+S+S+S+S+S+S+S+S+S+S+S+S+S+S+S+S+S+S+x@>@|@d@h@y@z@. .         ",
"          . A@B@D.E.O.P.&+C@#@#@#@#@#@#@#@#@#@#@#@#@#@#@#@#@#@#@#@#@&@/@|@d@h@y@D@~..           ",
"            . ; E@O.P.Z.`.&+p@&@F@F@F@F@F@F@F@F@F@F@F@F@F@F@F@F@>@>@/@|@d@h@y@G@H@.             ",
"              . !.I@Q.`.&+*+~+[+J+J@!@!@!@!@!@!@!@!@!@!@!@!@K@L@F@/@|@d@h@M@N@Y .               ",
"                . . O@P@*+~+{+[+5+g@w+x@J@d@h@u@u@h@d@|@/@>@&@>@/@|@d@h@Q@i@. .                 ",
"                    . R@S@T@[+5+6+f+p+q+w+D+J+t@E+U@X+ @#@&@>@/@|@d@V@W@X@.                     ",
"                      . . Y@Z@`@}+p+q+w+D+J+K+O+S+X+ @#@&@>@/@|@ #W@.#. .                       ",
"                          . . ; +#@###$#J+K+O+S+X+ @#@&@L@%#&#*#3.. .                           ",
"                              . . . + =#-#;#>#,#Y+'#*@)#!#. . . .                               ",
"                                      . . . . . . . . . .                                       "};
